<svg xmlns="http://www.w3.org/2000/svg" width="16" height="16" viewBox="0 0 16 16">
  <g id="Group_29496" data-name="Group 29496" transform="translate(-1 22)">
    <path id="Path_23161" data-name="Path 23161" d="M9-19a5,5,0,0,0-5,5A5,5,0,0,0,9-9a5,5,0,0,0,5-5A5,5,0,0,0,9-19Zm2.354,6.646a.5.5,0,0,1,0,.708.5.5,0,0,1-.708,0L9-13.293,7.354-11.646a.5.5,0,0,1-.708,0,.5.5,0,0,1,0-.708L8.293-14,6.646-15.646a.5.5,0,0,1,0-.708.5.5,0,0,1,.708,0h0L9-14.707l1.646-1.647a.5.5,0,0,1,.708,0,.5.5,0,0,1,0,.708h0L9.707-14Z" fill="#4c4c4c"/>
    <rect id="Rectangle_8612" data-name="Rectangle 8612" width="16" height="16" transform="translate(1 -22)" fill="none"/>
  </g>
</svg>
