<svg xmlns="http://www.w3.org/2000/svg" width="16" height="16" viewBox="0 0 16 16">
  <g id="Group_29660" data-name="Group 29660" transform="translate(102 22)">
    <g id="Group_7173" data-name="Group 7173">
      <path id="Path_8662" data-name="Path 8662" d="M-91.215-18.5h0a1.155,1.155,0,0,0-1.128-1H-94.8a1.155,1.155,0,0,0-1.128,1h0a1.154,1.154,0,0,1-1.128,1h-2.259a1.217,1.217,0,0,0-1.182,1.249v7.5A1.218,1.218,0,0,0-99.32-7.5h10.638A1.217,1.217,0,0,0-87.5-8.748v-7.609A1.124,1.124,0,0,0-88.6-17.5h-1.483A1.155,1.155,0,0,1-91.215-18.5Z" fill="none" stroke="#000" stroke-linecap="round" stroke-miterlimit="10" stroke-width="1"/>
      <circle id="Ellipse_205" data-name="Ellipse 205" cx="2.668" cy="2.668" r="2.668" transform="translate(-96.669 -15.746)" fill="none" stroke="#000" stroke-linecap="round" stroke-miterlimit="10" stroke-width="1"/>
    </g>
    <rect id="Rectangle_5664" data-name="Rectangle 5664" width="16" height="16" transform="translate(-102 -22)" fill="none"/>
    <rect id="Rectangle_15881" data-name="Rectangle 15881" width="16" height="16" transform="translate(-102 -22)" fill="none"/>
  </g>
</svg>
