<svg xmlns="http://www.w3.org/2000/svg" width="16" height="16" viewBox="0 0 16 16">
  <g id="Group_28" data-name="Group 28" transform="translate(101)">
    <rect id="Rectangle_5" data-name="Rectangle 5" width="16" height="16" transform="translate(-101)" fill="none"/>
    <g id="_16px_users-mm" data-name=" 16px users-mm">
      <g id="Group_14158" data-name="Group 14158">
        <path id="Path_22920" data-name="Path 22920" d="M-91.463,10.789l-2.132-.606a.433.433,0,0,1-.311-.356l-.179-1.263C-93.161,8.142-92.5,6.2-92.5,6.2V4.958a2.571,2.571,0,0,0-2.424-2.6A2.5,2.5,0,0,0-97.5,4.78V6.2s.327,1.94,1.252,2.362l-.179,1.26a.432.432,0,0,1-.31.355l-2.135.607a.864.864,0,0,0-.628.831V13.5h9V11.622A2.346,2.346,0,0,0-91.463,10.789Z" fill="none" stroke="#111" stroke-linecap="round" stroke-linejoin="round" stroke-width="1"/>
        <path id="Path_22921" data-name="Path 22921" d="M-88.5,13.5h2V10.7a.869.869,0,0,0-.64-.836l-2.283-.618a.428.428,0,0,1-.315-.362L-89.9,7.633a2.621,2.621,0,0,0,1.4-2.362V4.08a2.594,2.594,0,0,0-2.327-2.709,2.253,2.253,0,0,0-1.273.346" fill="none" stroke="#111" stroke-linecap="round" stroke-linejoin="round" stroke-width="1"/>
      </g>
    </g>
  </g>
</svg>
