<svg id="Group_30948" data-name="Group 30948" xmlns="http://www.w3.org/2000/svg" width="24" height="24" viewBox="0 0 24 24">
  <g id="Group_30919" data-name="Group 30919">
    <rect id="Rectangle_8581" data-name="Rectangle 8581" width="24" height="24" fill="none"/>
  </g>
  <path id="Path_33867" data-name="Path 33867" d="M18,8a1,1,0,0,0-1,1v7.667A4.424,4.424,0,0,1,12.5,21,4.424,4.424,0,0,1,8,16.667V5.333A2.424,2.424,0,0,1,10.5,3,2.424,2.424,0,0,1,13,5.333V15.667c0,.157-.214.333-.5.333s-.5-.176-.5-.333V6a1,1,0,0,0-2,0v9.667A2.424,2.424,0,0,0,12.5,18,2.424,2.424,0,0,0,15,15.667V5h-.035A4.424,4.424,0,0,0,10.5,1,4.424,4.424,0,0,0,6,5.333V17h.017A6.431,6.431,0,0,0,12.5,23a6.436,6.436,0,0,0,6.477-5.884A.915.915,0,0,0,19,17V9A1,1,0,0,0,18,8Z" fill="#ccc"/>
</svg>
