<svg id="Group_30957" data-name="Group 30957" xmlns="http://www.w3.org/2000/svg" width="32" height="32" viewBox="0 0 32 32">
  <path id="Path_8933" data-name="Path 8933" d="M16.667,4C8.567,4,2,9.969,2,17.333a12.787,12.787,0,0,0,4.768,9.837l-1.4,3.784a.278.278,0,0,0,.334.365l5.7-1.542a15.922,15.922,0,0,0,5.265.889c8.1,0,14.667-5.969,14.667-13.333S24.767,4,16.667,4Zm6.161,20.459a.152.152,0,0,1-.182.2l-3.107-.841a8.688,8.688,0,0,1-2.872.485c-4.418,0-8-3.257-8-7.273s3.582-7.273,8-7.273,8,3.256,8,7.273a6.976,6.976,0,0,1-2.6,5.366Z" transform="translate(-0.667 -1.333)" fill="#2196f3"/>
  <circle id="Ellipse_1995" data-name="Ellipse 1995" cx="1" cy="1" r="1" transform="translate(11 15)" fill="#2196f3"/>
  <circle id="Ellipse_1996" data-name="Ellipse 1996" cx="1" cy="1" r="1" transform="translate(15.167 15)" fill="#2196f3"/>
  <circle id="Ellipse_1997" data-name="Ellipse 1997" cx="1" cy="1" r="1" transform="translate(19.333 15)" fill="#2196f3"/>
  <rect id="Rectangle_8067" data-name="Rectangle 8067" width="32" height="32" fill="none"/>
</svg>
