<svg xmlns="http://www.w3.org/2000/svg" width="24" height="24" viewBox="0 0 24 24">
  <g id="Group_28384" data-name="Group 28384" transform="translate(-356 -36)">
    <rect id="Rectangle_5744" data-name="Rectangle 5744" width="24" height="24" transform="translate(356 36)" fill="none"/>
    <path id="Path_1571" data-name="Path 1571" d="M367.65,46a1.816,1.816,0,0,0-1.359.587,1.961,1.961,0,0,0-.561,1.4,1.987,1.987,0,0,0,.561,1.422,1.866,1.866,0,0,0,2.639.079c.027-.026.054-.052.079-.079a1.979,1.979,0,0,0,.561-1.422,1.953,1.953,0,0,0-.561-1.4A1.812,1.812,0,0,0,367.65,46Zm-6.081,0a1.816,1.816,0,0,0-1.359.587,1.963,1.963,0,0,0-.56,1.4,1.988,1.988,0,0,0,.561,1.422,1.814,1.814,0,0,0,1.358.589,1.789,1.789,0,0,0,1.342-.587,1.979,1.979,0,0,0,.561-1.422,1.953,1.953,0,0,0-.561-1.4A1.787,1.787,0,0,0,361.569,46Zm12.162,0a1.788,1.788,0,0,0-1.342.587,1.953,1.953,0,0,0-.561,1.4,1.979,1.979,0,0,0,.561,1.422,1.787,1.787,0,0,0,1.342.591,1.808,1.808,0,0,0,1.358-.587,1.984,1.984,0,0,0,.561-1.424,1.958,1.958,0,0,0-.562-1.4A1.809,1.809,0,0,0,373.729,46Z" transform="translate(0 0)" fill="#6e7584"/>
  </g>
</svg>
