<svg id="Group_30942" data-name="Group 30942" xmlns="http://www.w3.org/2000/svg" width="24" height="24" viewBox="0 0 24 24">
  <g id="Bars_Search_Bar___Search_Glyph" data-name="Bars/Search Bar/_/Search Glyph" transform="translate(2 2)">
    <rect id="Bars_Search_Bar___Search_Glyph_background" data-name="Bars/Search Bar/_/Search Glyph background" width="20" height="20" fill="rgba(0,0,0,0)"/>
    <path id="Search" d="M18.819,20a1.187,1.187,0,0,1-.855-.366L12.493,14.16l-.005,0a7.675,7.675,0,0,1-4.6,1.517h-.03a7.872,7.872,0,0,1-5.586-13.4A7.823,7.823,0,0,1,7.767,0H7.8a7.9,7.9,0,0,1,7.857,7.869,7.7,7.7,0,0,1-1.5,4.617l5.476,5.477A1.181,1.181,0,0,1,18.819,20ZM7.777,1.569A6.214,6.214,0,0,0,1.566,7.817a6.344,6.344,0,0,0,6.286,6.295h.024a6.216,6.216,0,0,0,6.215-6.25A6.342,6.342,0,0,0,7.806,1.569Z" fill="#6e7584"/>
  </g>
  <rect id="Rectangle_17313" data-name="Rectangle 17313" width="24" height="24" fill="none"/>
</svg>
