<?xml version="1.0" encoding="UTF-8"?><svg xmlns="http://www.w3.org/2000/svg" xmlns:xlink="http://www.w3.org/1999/xlink" viewBox="0 0 48 48" version="1.1"><g id="surface1"><path d="M41 10H25v28h16c.555 0 1-.445 1-1V11c0-.555-.445-1-1-1z" fill="#FF8A65"/><path d="M24 29h14v2H24z" fill="#FBE9E7"/><path d="M24 33h14v2H24z" fill="#FBE9E7"/><path d="M30 15c-3.313 0-6 2.688-6 6 0 3.313 2.688 6 6 6 3.313 0 6-2.688 6-6h-6z" fill="#FBE9E7"/><path d="M32 13v6h6c0-3.313-2.688-6-6-6z" fill="#FBE9E7"/><path d="M27 42L6 38V10l21-4z" fill="#E64A19"/><path d="M16.828 17H12v14h3v-4.824h1.55c1.657 0 2.977-.434 3.966-1.305.988-.867 1.484-2.004 1.484-3.41C22 18.488 20.273 17 16.828 17zm-.535 6.785H15v-4.363h1.293c1.64 0 2.46.719 2.46 2.156 0 1.473-.82 2.207-2.46 2.207z" fill="#FFF"/></g><metadata><rdf:RDF xmlns:rdf="http://www.w3.org/1999/02/22-rdf-syntax-ns#" xmlns:rdfs="http://www.w3.org/2000/01/rdf-schema#" xmlns:dc="http://purl.org/dc/elements/1.1/"><rdf:Description about="https://iconscout.com/legal#licenses" dc:title="microsoft,powerpoint" dc:description="microsoft,powerpoint" dc:publisher="Iconscout" dc:date="2017-12-15" dc:format="image/svg+xml" dc:language="en"><dc:creator><rdf:Bag><rdf:li>Icons8</rdf:li></rdf:Bag></dc:creator></rdf:Description></rdf:RDF></metadata></svg>