<?xml version="1.0" encoding="UTF-8"?><svg xmlns="http://www.w3.org/2000/svg" xmlns:xlink="http://www.w3.org/1999/xlink" viewBox="0 0 48 48" version="1.1"><g id="surface1"><path d="M41 10H25v28h16c.555 0 1-.445 1-1V11c0-.555-.445-1-1-1z" fill="#2196F3"/><path d="M25 15h14v2H25z" fill="#FFF"/><path d="M25 19h14v2H25z" fill="#FFF"/><path d="M25 23h14v2H25z" fill="#FFF"/><path d="M25 27h14v2H25z" fill="#FFF"/><path d="M25 31h14v2H25z" fill="#FFF"/><path d="M27 42L6 38V10l21-4z" fill="#0D47A1"/><path d="M21.168 31.012h-2.719l-1.8-8.989a9.405 9.405 0 0 1-.176-1.574h-.032c-.043.637-.109 1.16-.195 1.574l-1.851 8.989h-2.829L8.707 16.996h2.676l1.535 9.328c.062.406.113.942.145 1.61h.042c.016-.5.098-1.051.223-1.645l1.969-9.293h2.621l1.785 9.406c.063.348.121.844.172 1.508h.031c.02-.512.07-1.031.16-1.562l1.5-9.352h2.47z" fill="#FFF"/></g><metadata><rdf:RDF xmlns:rdf="http://www.w3.org/1999/02/22-rdf-syntax-ns#" xmlns:rdfs="http://www.w3.org/2000/01/rdf-schema#" xmlns:dc="http://purl.org/dc/elements/1.1/"><rdf:Description about="https://iconscout.com/legal#licenses" dc:title="microsoft,word" dc:description="microsoft,word" dc:publisher="Iconscout" dc:date="2017-12-15" dc:format="image/svg+xml" dc:language="en"><dc:creator><rdf:Bag><rdf:li>Icons8</rdf:li></rdf:Bag></dc:creator></rdf:Description></rdf:RDF></metadata></svg>